<!DOCTYPE svg PUBLIC "-//W3C//DTD SVG 1.1//EN" "http://www.w3.org/Graphics/SVG/1.1/DTD/svg11.dtd">
<!-- Uploaded to: SVG Repo, www.svgrepo.com, Transformed by: SVG Repo Mixer Tools -->
<svg width="800px" height="800px" viewBox="0 0 24 24" fill="none" xmlns="http://www.w3.org/2000/svg">
<g id="SVGRepo_bgCarrier" stroke-width="0"/>
<g id="SVGRepo_tracerCarrier" stroke-linecap="round" stroke-linejoin="round"/>
<g id="SVGRepo_iconCarrier"> <path d="M2 12C2 7.28595 2 4.92893 3.46447 3.46447C4.92893 2 7.28595 2 12 2C16.714 2 19.0711 2 20.5355 3.46447C22 4.92893 22 7.28595 22 12C22 16.714 22 19.0711 20.5355 20.5355C19.0711 22 16.714 22 12 22C7.28595 22 4.92893 22 3.46447 20.5355C2 19.0711 2 16.714 2 12Z" stroke="#000000" stroke-width="1.5"/> <path d="M6 7L6 17" stroke="#000000" stroke-width="1.5" stroke-linecap="round"/> <path d="M11 12C11 10.3431 12.3431 9 14 9C15.6569 9 17 10.3431 17 12C17 13.6569 15.6569 15 14 15C12.3431 15 11 13.6569 11 12Z" stroke="#000000" stroke-width="1.5"/> <path d="M16.5 9.5L18 8" stroke="#000000" stroke-width="1.5" stroke-linecap="round"/> <path d="M10 16L11.5 14.5" stroke="#000000" stroke-width="1.5" stroke-linecap="round"/> <path d="M11.5 9.5L10 8" stroke="#000000" stroke-width="1.5" stroke-linecap="round"/> <path d="M18 16L16.5 14.5" stroke="#000000" stroke-width="1.5" stroke-linecap="round"/> </g>
</svg>